<!--
  Android adaptive icon foreground — full pitch scene scaled to the
  ~66% safe zone so launcher mask shapes can't crop it.
-->
<svg xmlns="http://www.w3.org/2000/svg" viewBox="0 0 1024 1024" width="1024" height="1024">
  <g transform="translate(512 512) scale(0.62) translate(-512 -512)">
    <rect x="80" y="232" width="864" height="560" fill="none" stroke="#FFFFFF" stroke-width="18"/>
    <line x1="512" y1="232" x2="512" y2="792" stroke="#FFFFFF" stroke-width="18"/>
    <circle cx="512" cy="512" r="80" fill="#15803D" stroke="#FFFFFF" stroke-width="18"/>
    <circle cx="512" cy="512" r="8" fill="#FFFFFF"/>
    <rect x="80" y="362" width="130" height="300" fill="none" stroke="#FFFFFF" stroke-width="18"/>
    <rect x="80" y="442" width="45" height="140" fill="none" stroke="#FFFFFF" stroke-width="18"/>
    <circle cx="175" cy="512" r="8" fill="#FFFFFF"/>
    <path d="M 210 440 A 80 80 0 0 1 210 584" fill="none" stroke="#FFFFFF" stroke-width="18"/>
    <rect x="44" y="480" width="36" height="64" rx="4" ry="4" fill="#FFFFFF"/>
    <rect x="814" y="362" width="130" height="300" fill="none" stroke="#FFFFFF" stroke-width="18"/>
    <rect x="899" y="442" width="45" height="140" fill="none" stroke="#FFFFFF" stroke-width="18"/>
    <circle cx="849" cy="512" r="8" fill="#FFFFFF"/>
    <path d="M 814 440 A 80 80 0 0 0 814 584" fill="none" stroke="#FFFFFF" stroke-width="18"/>
    <rect x="944" y="480" width="36" height="64" rx="4" ry="4" fill="#FFFFFF"/>
    <line x1="290" y1="600" x2="265" y2="720" stroke="#FFFFFF" stroke-width="30" stroke-linecap="round"/>
    <line x1="290" y1="600" x2="410" y2="660" stroke="#FFFFFF" stroke-width="30" stroke-linecap="round"/>
    <line x1="290" y1="600" x2="305" y2="510" stroke="#FFFFFF" stroke-width="30" stroke-linecap="round"/>
    <line x1="305" y1="510" x2="240" y2="530" stroke="#FFFFFF" stroke-width="26" stroke-linecap="round"/>
    <line x1="305" y1="510" x2="365" y2="490" stroke="#FFFFFF" stroke-width="26" stroke-linecap="round"/>
    <circle cx="305" cy="475" r="32" fill="#FFFFFF"/>
    <circle cx="455" cy="680" r="36" fill="#FFFFFF"/>
  </g>
</svg>
